<?xml version="1.0" encoding="UTF-8" standalone="no"?>
<!DOCTYPE svg PUBLIC "-//W3C//DTD SVG 1.1//EN" "http://www.w3.org/Graphics/SVG/1.1/DTD/svg11.dtd">
<svg width="100%" height="100%" viewBox="0 0 3278 3506" version="1.1" xmlns="http://www.w3.org/2000/svg" xmlns:xlink="http://www.w3.org/1999/xlink" xml:space="preserve" xmlns:serif="http://www.serif.com/" style="fill-rule:evenodd;clip-rule:evenodd;stroke-linejoin:round;stroke-miterlimit:2;">
    <g transform="matrix(5.55556,0,0,5.55556,0,0)">
        <g transform="matrix(5.55556,0,0,5.55556,-1440.6,-1431.88)">
            <g transform="matrix(1,0,0,1,153,46)">
                <g transform="matrix(1,0,0,1,237.808,-6.76232)">
                    <path d="M-76.1,331.9C-73.3,330.4 -69.9,328.2 -66.3,325.5L-66.3,292.5L-76.1,286L-76.1,331.9Z" style="fill:rgb(0,45,114);fill-rule:nonzero;"/>
                </g>
                <g transform="matrix(1,0,0,1,237.808,-6.76232)">
                    <path d="M-76.1,263.1L-66.3,269.6L-66.3,252.9C-69.6,252.7 -72.8,252.7 -76.1,252.6L-76.1,263.1Z" style="fill:rgb(0,45,114);fill-rule:nonzero;"/>
                </g>
                <g transform="matrix(1,0,0,1,237.808,-6.76232)">
                    <path d="M-46.7,254.6C-50,254.2 -53.2,253.8 -56.5,253.6L-56.5,276.1L-46.7,282.6L-46.7,254.6Z" style="fill:rgb(0,45,114);fill-rule:nonzero;"/>
                </g>
                <g transform="matrix(1,0,0,1,237.808,-6.76232)">
                    <path d="M-56.5,299L-56.5,317C-53.2,313.7 -49.9,309.9 -46.7,305.6L-56.5,299Z" style="fill:rgb(0,45,114);fill-rule:nonzero;"/>
                </g>
                <g transform="matrix(1,0,0,1,237.808,-6.76232)">
                    <path d="M-36.8,256.1L-36.8,289.2C-32.5,280.3 -29.1,270 -27.1,257.9L-27.4,257.8C-30.6,257.2 -33.7,256.6 -36.8,256.1" style="fill:rgb(0,45,114);fill-rule:nonzero;"/>
                </g>
                <g transform="matrix(1,0,0,1,237.808,-6.76232)">
                    <path d="M-66.3,269.6L-66.3,292.5L-56.5,299L-56.5,276.1L-66.3,269.6Z" style="fill:rgb(0,45,114);fill-rule:nonzero;"/>
                </g>
                <g transform="matrix(1,0,0,1,237.808,-6.76232)">
                    <path d="M-46.7,282.7L-46.7,305.6C-43.2,300.8 -39.9,295.4 -36.9,289.3L-36.9,289.2L-46.7,282.7Z" style="fill:rgb(0,45,114);fill-rule:nonzero;"/>
                </g>
                <g transform="matrix(1,0,0,1,237.808,-6.76232)">
                    <path d="M-36.8,289.3C-36.8,289.3 -36.8,289.2 -36.8,289.3Z" style="fill:rgb(0,45,114);fill-rule:nonzero;"/>
                </g>
                <g transform="matrix(1,0,0,1,237.808,-6.76232)">
                    <path d="M-97.7,294C-94.8,293.2 -92.2,291.6 -90.3,289.4C-91.4,289 -92.6,288.6 -94.1,288.3C-95.1,290.6 -96.5,292.5 -97.7,294" style="fill:rgb(0,45,114);fill-rule:nonzero;"/>
                </g>
                <g transform="matrix(1,0,0,1,237.808,-6.76232)">
                    <path d="M-113.3,289.4C-111.3,291.6 -108.8,293.2 -105.9,294C-107.1,292.6 -108.5,290.7 -109.5,288.3C-110.9,288.6 -112.2,289 -113.3,289.4" style="fill:rgb(0,45,114);fill-rule:nonzero;"/>
                </g>
                <g transform="matrix(1,0,0,1,237.808,-6.76232)">
                    <path d="M-103.2,265.5C-104.3,266.7 -105.5,268.3 -106.6,270.4C-105.6,270.5 -104.4,270.6 -103.2,270.7L-103.2,265.5Z" style="fill:rgb(0,45,114);fill-rule:nonzero;"/>
                </g>
                <g transform="matrix(1,0,0,1,237.808,-6.76232)">
                    <path d="M-93.1,285.6C-91.3,286 -89.8,286.5 -88.6,287C-87.4,285.1 -86.7,282.9 -86.5,280.5L-92.2,280.5C-92.3,282.4 -92.6,284 -93.1,285.6" style="fill:rgb(0,45,114);fill-rule:nonzero;"/>
                </g>
                <g transform="matrix(1,0,0,1,237.808,-6.76232)">
                    <path d="M-105.9,264.2C-108.8,265 -111.4,266.6 -113.3,268.8C-112.2,269.2 -111,269.6 -109.5,269.9C-108.4,267.6 -107.1,265.7 -105.9,264.2" style="fill:rgb(0,45,114);fill-rule:nonzero;"/>
                </g>
                <g transform="matrix(1,0,0,1,237.808,-6.76232)">
                    <path d="M-90.3,268.8C-92.2,266.6 -94.8,265 -97.7,264.2C-96.5,265.6 -95.1,267.5 -94.1,269.9C-92.6,269.6 -91.3,269.2 -90.3,268.8" style="fill:rgb(0,45,114);fill-rule:nonzero;"/>
                </g>
                <g transform="matrix(1,0,0,1,237.808,-6.76232)">
                    <path d="M-92.1,277.7L-86.4,277.7C-86.6,275.3 -87.4,273.2 -88.5,271.2C-89.7,271.7 -91.2,272.2 -93,272.6C-92.6,274.2 -92.3,275.9 -92.1,277.7" style="fill:rgb(0,45,114);fill-rule:nonzero;"/>
                </g>
                <g transform="matrix(1,0,0,1,237.808,-6.76232)">
                    <path d="M-100.4,292.7C-99.3,291.5 -98.1,289.9 -97,287.8C-98.1,287.7 -99.2,287.6 -100.4,287.5L-100.4,292.7Z" style="fill:rgb(0,45,114);fill-rule:nonzero;"/>
                </g>
                <g transform="matrix(1,0,0,1,237.808,-6.76232)">
                    <path d="M-103.2,280.5L-108.6,280.5C-108.5,282.1 -108.2,283.7 -107.7,285C-106.3,284.8 -104.8,284.6 -103.2,284.6L-103.2,280.5Z" style="fill:rgb(0,45,114);fill-rule:nonzero;"/>
                </g>
                <g transform="matrix(1,0,0,1,237.808,-6.76232)">
                    <path d="M-100.4,284.6C-98.8,284.7 -97.3,284.8 -95.9,285C-95.5,283.6 -95.1,282.1 -95,280.5L-100.4,280.5L-100.4,284.6Z" style="fill:rgb(0,45,114);fill-rule:nonzero;"/>
                </g>
                <g transform="matrix(1,0,0,1,237.808,-6.76232)">
                    <path d="M-97,270.5C-98,268.4 -99.3,266.7 -100.4,265.6L-100.4,270.8C-99.2,270.7 -98,270.6 -97,270.5" style="fill:rgb(0,45,114);fill-rule:nonzero;"/>
                </g>
                <g transform="matrix(1,0,0,1,237.808,-6.76232)">
                    <path d="M-95,277.7C-95.1,276.1 -95.4,274.5 -95.9,273.2C-97.3,273.4 -98.8,273.6 -100.4,273.6L-100.4,277.7L-95,277.7Z" style="fill:rgb(0,45,114);fill-rule:nonzero;"/>
                </g>
                <g transform="matrix(1,0,0,1,237.808,-6.76232)">
                    <path d="M-106.6,287.8C-105.6,289.9 -104.3,291.5 -103.2,292.7L-103.2,287.5C-104.4,287.5 -105.5,287.6 -106.6,287.8" style="fill:rgb(0,45,114);fill-rule:nonzero;"/>
                </g>
                <g transform="matrix(1,0,0,1,237.808,-6.76232)">
                    <path d="M-110.5,272.6C-112.3,272.2 -113.8,271.7 -115,271.2C-116.1,273.1 -116.9,275.3 -117.1,277.7L-111.4,277.7C-111.3,275.9 -111,274.2 -110.5,272.6" style="fill:rgb(0,45,114);fill-rule:nonzero;"/>
                </g>
                <g transform="matrix(1,0,0,1,237.808,-6.76232)">
                    <path d="M-103.2,273.6C-104.8,273.5 -106.3,273.4 -107.7,273.2C-108.2,274.6 -108.5,276.1 -108.6,277.7L-103.2,277.7L-103.2,273.6Z" style="fill:rgb(0,45,114);fill-rule:nonzero;"/>
                </g>
                <g transform="matrix(1,0,0,1,237.808,-6.76232)">
                    <path d="M-111.4,280.5L-117.1,280.5C-116.9,282.9 -116.1,285 -115,287C-113.8,286.5 -112.3,286 -110.5,285.6C-110.9,284 -111.3,282.4 -111.4,280.5" style="fill:rgb(0,45,114);fill-rule:nonzero;"/>
                </g>
            </g>
            <g transform="matrix(1,0,0,1,153,46)">
                <g transform="matrix(1,0,0,1,237.808,-6.76232)">
                    <path d="M-129.8,258C-122.6,302.6 -94.7,324.3 -80.8,332L-80.8,252.7C-97.2,252.9 -113.6,254.6 -129.5,258L-129.8,258ZM-101.8,260.8C-91.7,260.8 -83.5,269 -83.5,279.1C-83.5,289.2 -91.7,297.4 -101.8,297.4C-111.9,297.4 -120.1,289.2 -120.1,279.1C-120,269 -111.8,260.8 -101.8,260.8" style="fill:rgb(0,45,114);fill-rule:nonzero;"/>
                </g>
                <g transform="matrix(1,0,0,1,237.808,-6.76232)">
                    <path d="M-27.5,223.9C-44,220.4 -61,218.5 -78.4,218.5C-95.9,218.5 -112.9,220.4 -129.4,223.9L-129.5,223.9C-130.7,224.2 -131.5,225.2 -131.5,226.5L-131.5,235.7C-131.5,241.8 -131.1,247.5 -130.5,252.9C-113.4,249.3 -95.9,247.5 -78.4,247.5C-60.9,247.5 -43.4,249.3 -26.4,252.9C-25.7,247.5 -25.4,241.8 -25.4,235.7L-25.4,226.5C-25.4,225.2 -26.3,224.2 -27.5,223.9M-39,246.7C-51.8,244.3 -66.4,243.5 -78.5,243.5C-90.5,243.5 -105.2,244.2 -118,246.7C-118.5,246.8 -118.9,246.4 -118.6,245.8L-110.2,227.3C-110.1,227.1 -104.7,224.4 -104.7,224.4C-97.8,223 -86.4,223.6 -78.5,226.5C-70.6,223.6 -59.2,222.9 -52.3,224.4C-52.3,224.4 -46.9,227.1 -46.8,227.3L-38.4,245.8C-38.1,246.4 -38.5,246.8 -39,246.7" style="fill:rgb(0,45,114);fill-rule:nonzero;"/>
                </g>
            </g>
            <g transform="matrix(1,0,0,1,153,46)">
                <g transform="matrix(1,0,0,1,237.808,-6.76232)">
                    <path d="M-54.4,227.6L-50.9,237.1C-59.1,236 -65.9,236.5 -76,239.8L-76,240.7C-66.5,240.3 -54.5,239.8 -44.7,241.9L-50,229.7L-54.4,227.6Z" style="fill:rgb(0,45,114);fill-rule:nonzero;"/>
                </g>
                <g transform="matrix(1,0,0,1,237.808,-6.76232)">
                    <path d="M-106.1,237.1L-102.6,227.6L-107,229.6L-112.3,241.8C-102.6,239.7 -90.5,240.2 -81,240.6L-81,239.7C-91,236.5 -97.9,236 -106.1,237.1" style="fill:rgb(0,45,114);fill-rule:nonzero;"/>
                </g>
            </g>
        </g>
    </g>
</svg>
